<svg width="1200" height="630" viewBox="0 0 1200 630" fill="none" xmlns="http://www.w3.org/2000/svg">
  <rect width="1200" height="630" fill="#020617"/>
  <circle cx="1030" cy="120" r="220" fill="#2563EB" opacity="0.3"/>
  <circle cx="180" cy="560" r="190" fill="#0EA5E9" opacity="0.2"/>
  <rect x="70" y="74" width="1060" height="482" rx="34" fill="#0F172A" stroke="#334155"/>
  <rect x="120" y="142" width="160" height="160" rx="36" fill="url(#g)"/>
  <rect x="158" y="176" width="84" height="96" rx="22" fill="white"/>
  <circle cx="200" cy="208" r="18" fill="#2563EB"/>
  <path d="M165 256c7-16 20-24 35-24s28 8 35 24" stroke="#2563EB" stroke-width="8" stroke-linecap="round"/>
  <text x="330" y="210" fill="#F8FAFC" font-size="72" font-family="Arial, Helvetica, sans-serif" font-weight="700">PhotoForUSA</text>
  <text x="330" y="278" fill="#94A3B8" font-size="31" font-family="Arial, Helvetica, sans-serif">AI crop • 600×600 export • Premium background removal</text>
  <text x="330" y="322" fill="#94A3B8" font-size="31" font-family="Arial, Helvetica, sans-serif">U.S. Green Card &amp; Visa Photo Tool</text>
  <rect x="330" y="360" width="190" height="58" rx="16" fill="#2563EB"/>
  <text x="370" y="398" fill="white" font-size="28" font-family="Arial, Helvetica, sans-serif" font-weight="700">Cloudflare-ready</text>
  <rect x="548" y="360" width="180" height="58" rx="16" fill="#0EA5E9"/>
  <text x="603" y="398" fill="#082F49" font-size="28" font-family="Arial, Helvetica, sans-serif" font-weight="700">Monetizable</text>
  <defs>
    <linearGradient id="g" x1="120" x2="280" y1="142" y2="302">
      <stop stop-color="#0EA5E9"/>
      <stop offset="1" stop-color="#2563EB"/>
    </linearGradient>
  </defs>
</svg>
